<?xml version="1.0" encoding="utf-8"?>
<!-- Generator: Adobe Illustrator 27.6.1, SVG Export Plug-In . SVG Version: 6.00 Build 0)  -->
<svg version="1.1" id="Layer_1" xmlns="http://www.w3.org/2000/svg" xmlns:xlink="http://www.w3.org/1999/xlink" x="0px" y="0px"
	 viewBox="0 0 632 167" style="enable-background:new 0 0 632 167;" xml:space="preserve">
<style type="text/css">
	.st0{fill:#8B4D98;}
	.st1{fill:#54274E;}
</style>
<path class="st0" d="M237,68.5V118h8h8V68.5V19h-8h-8V68.5z"/>
<path class="st1" d="M9.2,68.7l0.3,48.8l11.3,0.3l11.2,0.3V69V20H20.5H9L9.2,68.7z"/>
<path class="st1" d="M48.7,30.7l0.2,10.8l36.5,0.3L122,42V31V20H85.3H48.5L48.7,30.7z"/>
<path class="st1" d="M134,31v11h13h13v38v38h11h11V80V42h13h13V31V20h-37h-37V31z"/>
<path class="st0" d="M296.5,51.9c-2.3,1-5.3,3.2-6.7,5c-1.5,1.7-2.9,3.1-3.2,3.1s-0.6-2-0.6-4.5V51h-7.5H271v33.5V118h8h8V95.6V73.2
	l4-3.6c2.2-1.9,5.1-3.8,6.5-4.2c4.5-1.1,9.7,0.3,13,3.6l3,3l0.3,23l0.3,23h8.5h8.4V95.5c0-25-0.8-30.5-5.1-36.5
	C320,50.9,306.1,47.5,296.5,51.9z"/>
<path class="st0" d="M362,50.9c-20,6.1-24.2,26.3-7.3,35.4c2.8,1.5,9.4,3.8,14.7,5.1C380,94,382,95.2,382,98.5
	c0,3.6-3.4,5.8-9.9,6.3c-7,0.5-11.4-0.8-18.3-5.4c-4.7-3.2-5.2-3.3-6.3-1.7c-0.7,1-2.7,3.6-4.4,5.7c-3,3.8-3.1,4-1.4,5.9
	c8,8.7,29.3,12.7,42.4,7.8c5.9-2.2,12.1-7.8,13.8-12.4c1.6-4.2,1.3-9.7-0.9-14.4c-2.8-6.3-9.1-9.6-24.3-12.9
	c-4.8-1-8.9-2.5-10.5-3.9c-2.5-2.2-2.5-2.3-0.9-4.8c3.5-5.4,14.6-6.1,23.4-1.5l4.8,2.4l4.2-6l4.2-6l-2.7-1.8
	C388.1,51.1,370.2,48.4,362,50.9z"/>
<path class="st0" d="M435.5,51.9c-2.2,1-5.1,3-6.4,4.5c-3.3,3.5-4.1,3.3-4.1-1.4v-4h-7.5H410v49.5V150h8.5h8.5v-19v-19l4.3,3
	c7.8,5.6,20,5.7,29.8,0.4c6.2-3.4,10.4-8.1,13.8-15.4c2.3-4.8,2.6-6.8,2.6-15.5c0-8.8-0.3-10.7-2.7-15.7
	c-3.5-7.5-10.4-14.1-17.4-16.7C450.4,49.4,441,49.4,435.5,51.9z M450.8,66.9c7.3,3.8,10.2,8.7,10.2,17.6c0,6.5-1.2,10.1-4.8,13.9
	c-7,7.4-18.4,7.6-25.9,0.3l-3.3-3.1V84.5c0-10.8,0.1-11.2,2.8-13.7C436.1,64.8,443.9,63.4,450.8,66.9z"/>
<path class="st0" d="M506.6,51.7c-6.5,2.3-14.8,10-18.3,17.1c-2.5,5-2.8,6.8-2.8,15.2c0,8.1,0.4,10.3,2.6,15
	c3.5,7.6,7.7,12.1,14.7,15.8c7.3,3.9,15.6,5.3,24.2,4.1c6.2-0.9,14.4-4.1,18.4-7.2c2.1-1.5,1.9-1.9-5.4-12.8
	c-0.3-0.5-3.2,0.5-6.4,2.1c-11.2,5.7-24.2,3.3-29.5-5.4c-1.2-1.8-2.1-3.6-2.1-4c0-0.3,11.1-0.7,24.8-0.8l24.7-0.3l0.3-4.3
	c1-13.4-6.5-26.8-18.3-33C527,49.9,514.1,49.1,506.6,51.7z M527.8,67c3.5,2.1,7.2,7.4,7.2,10.2c0,1.6-1.5,1.8-16.5,1.8
	S502,78.8,502,77.2c0-2.8,3.7-8.1,7.2-10.2C513.7,64.3,523.3,64.3,527.8,67z"/>
<path class="st0" d="M582.3,51.4c-6,1.9-10.6,5-15.7,10.7c-7.9,8.8-10.3,20.8-6.6,33c1.9,6.3,3,8.1,8.3,13.4
	c7.8,7.8,14.7,10.7,25.7,10.7c9.4,0,17.2-2.8,23.2-8.2l4.3-3.8l-5.5-5.6l-5.4-5.6l-2.6,2.4c-4,3.7-8.5,5.6-13.6,5.6
	c-17.1,0-25.5-19.7-14.1-32.7c1.8-2,4.6-4.2,6.4-4.9c6.5-2.7,15.8-1.1,20.9,3.7l2.2,2.1l5.5-4.9c3-2.6,5.4-5.3,5.3-5.8
	c-0.5-2-10-8.3-14.8-9.9C599.8,49.7,588.2,49.6,582.3,51.4z"/>
<path class="st0" d="M49,69v11h36.5H122V69V58H85.5H49V69z"/>
<path class="st0" d="M49,107v11h36.5H122v-11V96H85.5H49V107z"/>
</svg>
