<?xml version="1.0" encoding="UTF-8" standalone="no"?>
<svg
   width="299.99808pt"
   height="31.16325pt"
   viewBox="0 0 299.99808 31.163249"
   version="1.2"
   id="svg2965"
   sodipodi:docname="Web of Science Logo 05.12.2023.svg"
   inkscape:version="1.1.2 (0a00cf5339, 2022-02-04)"
   xmlns:inkscape="http://www.inkscape.org/namespaces/inkscape"
   xmlns:sodipodi="http://sodipodi.sourceforge.net/DTD/sodipodi-0.dtd"
   xmlns="http://www.w3.org/2000/svg"
   xmlns:svg="http://www.w3.org/2000/svg">
  <sodipodi:namedview
     id="namedview2967"
     pagecolor="#505050"
     bordercolor="#ffffff"
     borderopacity="1"
     inkscape:pageshadow="0"
     inkscape:pageopacity="0"
     inkscape:pagecheckerboard="1"
     inkscape:document-units="pt"
     showgrid="false"
     inkscape:zoom="1.661557"
     inkscape:cx="270.52939"
     inkscape:cy="-4.5138385"
     inkscape:window-width="1846"
     inkscape:window-height="1016"
     inkscape:window-x="0"
     inkscape:window-y="0"
     inkscape:window-maximized="1"
     inkscape:current-layer="svg2965" />
  <defs
     id="defs906">
    <filter
       id="alpha"
       filterUnits="objectBoundingBox"
       x="0"
       y="0"
       width="1"
       height="1">
      <feColorMatrix
         type="matrix"
         in="SourceGraphic"
         values="0 0 0 0 1 0 0 0 0 1 0 0 0 0 1 0 0 0 1 0"
         id="feColorMatrix668" />
    </filter>
  </defs>
  <g
     id="g4432"
     transform="matrix(0.75,0,0,0.75,-11.25,-11.25)">
    <path
       style="fill:#000000;fill-opacity:1;stroke:none;stroke-width:2.94166"
       d="m 15,15.689438 h 8.641143 l 6.159113,28.773169 h 0.09193 l 7.675906,-28.773169 h 8.319399 L 53.5634,44.462607 h 0.04598 l 6.434893,-28.773169 h 8.135544 L 58.38957,55.861561 H 49.150901 L 41.56692,26.996466 34.166791,55.861561 h -9.238669 z m 0,0"
       id="path4278" />
    <path
       style="fill:#000000;fill-opacity:1;stroke:none;stroke-width:2.94166"
       d="m 82.240294,56.551 c -2.608431,0 -4.952571,-0.586009 -7.03242,-1.746585 -2.091342,-1.195051 -3.723045,-2.849739 -4.918098,-4.96406 -1.195051,-2.114323 -1.792577,-4.481452 -1.792577,-7.124362 0,-2.631409 0.574542,-4.987036 1.746614,-7.078384 1.195052,-2.114322 2.815266,-3.769009 4.872134,-4.964061 2.079849,-1.195051 4.423988,-1.792563 7.03242,-1.792563 2.505014,0 4.80319,0.574537 6.894529,1.700637 2.079849,1.1376 3.734536,2.884214 4.964061,5.239841 1.252505,2.367129 1.884505,5.28582 1.884505,8.779049 v 0.32173 H 76.356963 c 0.183854,1.470833 0.827342,2.711863 1.930467,3.72306 1.103125,1.011198 2.459048,1.516783 4.090754,1.516783 1.103125,0 2.125813,-0.229745 3.079557,-0.689439 0.942254,-0.459635 1.67767,-1.114627 2.20625,-1.976446 l 7.721872,0.781395 C 94.248265,51.035406 92.536124,53.10375 90.237948,54.482656 87.939772,55.861561 85.273887,56.551 82.240294,56.551 Z m 5.699478,-16.638768 c -0.183855,-1.378906 -0.815854,-2.528009 -1.884505,-3.447279 -1.080144,-0.919271 -2.378614,-1.378906 -3.9069,-1.378906 -1.539777,0 -2.838249,0.448133 -3.9069,1.332957 -1.080144,0.896267 -1.769594,2.056842 -2.068359,3.493228 z m 0,0"
       id="path4298" />
    <path
       style="fill:#000000;fill-opacity:1;stroke:none;stroke-width:2.94166"
       d="m 115.90621,56.551 c -1.78109,0 -3.4013,-0.390683 -4.87214,-1.149074 -1.47083,-0.758391 -2.56246,-1.712137 -3.26341,-2.849738 v 3.309373 h -7.44609 V 15.689438 h 7.44609 v 12.961715 l -0.046,2.987644 c -0.0345,0.402155 -0.046,0.850318 -0.046,1.332927 0.64349,-1.195051 1.70065,-2.171772 3.17149,-2.941665 1.49381,-0.758391 3.21744,-1.149074 5.14792,-1.149074 2.35563,0 4.50442,0.597512 6.43489,1.792563 1.95345,1.195052 3.49323,2.849739 4.59636,4.964061 1.1261,2.091348 1.70064,4.446975 1.70064,7.078384 0,2.64291 -0.57454,5.010039 -1.70064,7.124362 -1.13761,2.114321 -2.68888,3.769009 -4.64232,4.96406 -1.93047,1.160576 -4.09076,1.746585 -6.48086,1.746585 z m -1.60873,-6.618719 c 1.95345,0 3.56218,-0.689467 4.82618,-2.068374 1.2525,-1.40188 1.8845,-3.125519 1.8845,-5.147914 0,-2.04537 -0.632,-3.746035 -1.8845,-5.101937 -1.264,-1.378906 -2.87273,-2.068374 -4.82618,-2.068374 -1.93046,0 -3.53919,0.689468 -4.82617,2.068374 -1.26399,1.355902 -1.8845,3.056567 -1.8845,5.101937 0,2.022395 0.62051,3.746034 1.8845,5.147914 1.28698,1.378907 2.89571,2.068374 4.82617,2.068374 z m 0,0"
       id="path4294" />
    <path
       style="fill:#000000;fill-opacity:1;stroke:none;stroke-width:2.94166"
       d="m 157.3742,56.551 c -2.55097,0 -4.90661,-0.586009 -7.07838,-1.746585 -2.1488,-1.195051 -3.84945,-2.849739 -5.10195,-4.96406 -1.22953,-2.114323 -1.83855,-4.481452 -1.83855,-7.124362 0,-2.631409 0.60902,-4.987036 1.83855,-7.078384 1.2525,-2.114322 2.95315,-3.769009 5.10195,-4.964061 2.17177,-1.195051 4.52741,-1.792563 7.07838,-1.792563 2.57396,0 4.92959,0.597512 7.07839,1.792563 2.17177,1.195052 3.87242,2.849739 5.10194,4.964061 1.25251,2.091348 1.88451,4.446975 1.88451,7.078384 0,2.64291 -0.632,5.010039 -1.88451,7.124362 -1.22952,2.114321 -2.93017,3.769009 -5.10194,4.96406 -2.1488,1.160576 -4.50443,1.746585 -7.07839,1.746585 z m 0,-6.664696 c 1.93047,0 3.50472,-0.666464 4.73424,-2.022397 1.21803,-1.344429 1.83855,-3.056566 1.83855,-5.147914 0,-2.04537 -0.62052,-3.746035 -1.83855,-5.101937 -1.22952,-1.378906 -2.80377,-2.068374 -4.73424,-2.068374 -1.93047,0 -3.51622,0.689468 -4.73424,2.068374 -1.22953,1.355902 -1.83855,3.056567 -1.83855,5.101937 0,2.091348 0.60902,3.803485 1.83855,5.147914 1.21802,1.355933 2.80377,2.022397 4.73424,2.022397 z m 0,0"
       id="path4258" />
    <path
       style="fill:#000000;fill-opacity:1;stroke:none;stroke-width:2.94166"
       d="m 178.00781,35.913391 h -4.13672 v -6.342967 h 4.13672 v -7.446092 c 0,-2.390103 0.66647,-4.136717 2.02239,-5.239842 1.37891,-1.126099 3.18298,-1.700636 5.4237,-1.700636 1.2525,0 3.05657,0.126492 5.4237,0.367708 v 6.802602 c -1.56276,-0.183854 -2.59695,-0.275634 -3.07956,-0.275634 -0.80437,0 -1.40188,0.160909 -1.79258,0.459636 -0.36771,0.310228 -0.55156,0.873292 -0.55156,1.700635 v 5.33177 h 5.05599 v 6.342967 h -5.05599 v 19.948023 h -7.44609 z m 0,0"
       id="path4266" />
    <path
       style="fill:#000000;fill-opacity:1;stroke:none;stroke-width:2.94166"
       d="m 217.22578,56.551 c -2.91868,0 -5.55009,-0.505584 -7.90572,-1.516781 -2.33265,-1.034173 -4.49294,-2.539482 -6.48086,-4.504427 l 4.41249,-5.975258 c 1.43636,1.505309 3.0336,2.688859 4.78021,3.539206 1.7696,0.827344 3.44727,1.241001 5.01003,1.241001 1.67767,0 3.03359,-0.413657 4.04479,-1.241001 1.0112,-0.827343 1.5168,-1.861545 1.5168,-3.12552 0,-1.252531 -0.5056,-2.32118 -1.5168,-3.217447 -1.0112,-0.91927 -2.60843,-1.861545 -4.7802,-2.849738 l -2.80379,-1.332957 c -5.86034,-2.757812 -8.77903,-6.503847 -8.77903,-11.26105 0,-2.229253 0.60902,-4.20567 1.83855,-5.92931 1.21803,-1.746614 2.84973,-3.079542 4.87213,-3.998812 C 213.47975,15.459635 215.72048,15 218.14505,15 c 2.26371,0 4.52741,0.528559 6.8026,1.56276 2.29819,1.011198 4.43548,2.378601 6.4349,4.090739 l -4.59635,5.745456 c -1.264,-1.286978 -2.6429,-2.298176 -4.13672,-3.033593 -1.5053,-0.735416 -2.94167,-1.103125 -4.32058,-1.103125 -1.3789,0 -2.57395,0.356207 -3.58514,1.057147 -0.98823,0.677966 -1.47084,1.585734 -1.47084,2.711863 0,0.953718 0.33323,1.815537 1.0112,2.573957 0.66646,0.735417 1.79258,1.470833 3.35534,2.20625 l 3.30937,1.516781 c 3.42428,1.631713 5.98675,3.378327 7.67591,5.239843 1.67767,1.873017 2.52799,4.251619 2.52799,7.124362 0,2.056842 -0.57454,3.998811 -1.70065,5.837352 -1.10312,1.815567 -2.71185,3.263426 -4.82617,4.366551 -2.11432,1.103095 -4.58486,1.654657 -7.40013,1.654657 z m 0,0"
       id="path4250" />
    <path
       style="fill:#000000;fill-opacity:1;stroke:none;stroke-width:2.94166"
       d="m 248.36261,56.551 c -2.55098,0 -4.89514,-0.586009 -7.03243,-1.746585 -2.14881,-1.195051 -3.84945,-2.849739 -5.10196,-4.96406 -1.22952,-2.114323 -1.83854,-4.481452 -1.83854,-7.124362 0,-2.631409 0.60902,-4.987036 1.83854,-7.078384 1.25251,-2.114322 2.95315,-3.769009 5.10196,-4.964061 2.13729,-1.195051 4.48145,-1.792563 7.03243,-1.792563 3.03359,0 5.71095,0.781365 8.0436,2.344126 2.35563,1.56276 3.96437,3.631133 4.82618,6.205091 l -6.98646,2.160271 c -0.52858,-1.218026 -1.28697,-2.20625 -2.29817,-2.941666 -1.01119,-0.735416 -2.19478,-1.103125 -3.53921,-1.103125 -1.93047,0 -3.5162,0.689468 -4.73422,2.068374 -1.22953,1.355902 -1.83855,3.056567 -1.83855,5.101937 0,2.091348 0.60902,3.803485 1.83855,5.147914 1.21802,1.355933 2.80375,2.022397 4.73422,2.022397 1.34443,0 2.52802,-0.344734 3.53921,-1.057148 1.0112,-0.700969 1.76959,-1.67769 2.29817,-2.941665 l 6.98646,2.160271 c -0.86181,2.608434 -2.47055,4.676778 -4.82618,6.205091 -2.33265,1.539756 -5.01001,2.298147 -8.0436,2.298147 z m 0,0"
       id="path4274" />
    <path
       style="fill:#000000;fill-opacity:1;stroke:none;stroke-width:2.94166"
       d="m 267.20621,35.913391 h -3.67709 v -6.342967 h 11.12318 v 26.291137 h -7.44609 z m 3.35535,-10.617561 c -1.32145,0 -2.43607,-0.459635 -3.35535,-1.378906 -0.91927,-0.91927 -1.3789,-2.045399 -1.3789,-3.401301 0,-1.309982 0.45963,-2.447583 1.3789,-3.401301 0.94225,-0.942274 2.06838,-1.424884 3.35535,-1.424884 1.34443,0 2.48203,0.48261 3.40131,1.424884 0.94224,0.953718 1.42485,2.091319 1.42485,3.401301 0,1.355902 -0.48261,2.482031 -1.42485,3.401301 -0.91928,0.919271 -2.05688,1.378906 -3.40131,1.378906 z m 0,0"
       id="path4270" />
    <path
       style="fill:#000000;fill-opacity:1;stroke:none;stroke-width:2.94166"
       d="m 293.16239,56.551 c -2.60844,0 -4.95259,-0.586009 -7.03244,-1.746585 -2.09135,-1.195051 -3.72304,-2.849739 -4.91809,-4.96406 -1.19505,-2.114323 -1.79259,-4.481452 -1.79259,-7.124362 0,-2.631409 0.57454,-4.987036 1.74661,-7.078384 1.19505,-2.114322 2.81526,-3.769009 4.87214,-4.964061 2.07985,-1.195051 4.424,-1.792563 7.03244,-1.792563 2.505,0 4.80318,0.574537 6.89452,1.700637 2.07985,1.1376 3.73454,2.884214 4.96406,5.239841 1.25251,2.367129 1.8845,5.28582 1.8845,8.779049 v 0.32173 h -19.53449 c 0.18385,1.470833 0.82735,2.711863 1.93047,3.72306 1.10312,1.011198 2.45903,1.516783 4.09074,1.516783 1.10312,0 2.12582,-0.229745 3.07957,-0.689439 0.94224,-0.459635 1.67766,-1.114627 2.20625,-1.976446 l 7.72187,0.781395 c -1.1376,2.757811 -2.84974,4.826155 -5.14792,6.205061 -2.29817,1.378905 -4.96405,2.068344 -7.99764,2.068344 z m 5.69947,-16.638768 c -0.18386,-1.378906 -0.81588,-2.528009 -1.88452,-3.447279 -1.08015,-0.919271 -2.3786,-1.378906 -3.90688,-1.378906 -1.53979,0 -2.83828,0.448133 -3.90692,1.332957 -1.08015,0.896267 -1.76959,2.056842 -2.06835,3.493228 z m 0,0"
       id="path4290" />
    <path
       style="fill:#000000;fill-opacity:1;stroke:none;stroke-width:2.94166"
       d="m 311.24666,29.570424 h 7.26223 v 1.057175 c 0,0.58601 -0.0344,1.275477 -0.0918,2.068344 0.97673,-1.218025 2.17178,-2.16027 3.58516,-2.80376 1.43636,-0.666493 2.91869,-1.011198 4.45845,-1.011198 2.87275,0 5.21687,0.873293 7.03244,2.619907 1.80406,1.746614 2.71183,4.136717 2.71183,7.17031 V 55.861561 H 328.7589 V 40.555722 c 0,-1.56276 -0.44814,-2.734838 -1.33293,-3.539206 -0.86182,-0.792868 -1.91897,-1.195053 -3.1715,-1.195053 -1.08012,0 -2.09132,0.275634 -3.03359,0.827344 -0.91927,0.528588 -1.76959,1.24103 -2.52798,2.1603 v 17.052454 h -7.44609 z m 0,0"
       id="path4282" />
    <path
       style="fill:#000000;fill-opacity:1;stroke:none;stroke-width:2.94166"
       d="m 354.65535,56.551 c -2.55098,0 -4.89511,-0.586009 -7.03243,-1.746585 -2.14877,-1.195051 -3.84944,-2.849739 -5.10194,-4.96406 -1.22953,-2.114323 -1.83854,-4.481452 -1.83854,-7.124362 0,-2.631409 0.60901,-4.987036 1.83854,-7.078384 1.2525,-2.114322 2.95317,-3.769009 5.10194,-4.964061 2.13732,-1.195051 4.48145,-1.792563 7.03243,-1.792563 3.03359,0 5.71098,0.781365 8.0436,2.344126 2.35566,1.56276 3.96437,3.631133 4.82619,6.205091 l -6.98645,2.160271 c -0.52859,-1.218026 -1.28699,-2.20625 -2.29818,-2.941666 -1.0112,-0.735416 -2.19475,-1.103125 -3.53921,-1.103125 -1.93046,0 -3.5162,0.689468 -4.73423,2.068374 -1.22953,1.355902 -1.83853,3.056567 -1.83853,5.101937 0,2.091348 0.609,3.803485 1.83853,5.147914 1.21803,1.355933 2.80377,2.022397 4.73423,2.022397 1.34446,0 2.52801,-0.344734 3.53921,-1.057148 1.01119,-0.700969 1.76959,-1.67769 2.29818,-2.941665 l 6.98645,2.160271 c -0.86182,2.608434 -2.47053,4.676778 -4.82619,6.205091 -2.33262,1.539756 -5.01001,2.298147 -8.0436,2.298147 z m 0,0"
       id="path4286" />
    <path
       style="fill:#000000;fill-opacity:1;stroke:none;stroke-width:2.94166"
       d="m 384.02459,56.551 c -2.60841,0 -4.95256,-0.586009 -7.03241,-1.746585 -2.09135,-1.195051 -3.72305,-2.849739 -4.91811,-4.96406 -1.19505,-2.114323 -1.79256,-4.481452 -1.79256,-7.124362 0,-2.631409 0.57454,-4.987036 1.74661,-7.078384 1.19506,-2.114322 2.81527,-3.769009 4.87214,-4.964061 2.07985,-1.195051 4.424,-1.792563 7.03241,-1.792563 2.50503,0 4.80321,0.574537 6.89452,1.700637 2.07988,1.1376 3.73457,2.884214 4.96406,5.239841 1.25253,2.367129 1.88452,5.28582 1.88452,8.779049 v 0.32173 h -19.53451 c 0.18385,1.470833 0.82734,2.711863 1.93047,3.72306 1.10312,1.011198 2.45906,1.516783 4.09077,1.516783 1.10312,0 2.12582,-0.229745 3.07954,-0.689439 0.94227,-0.459635 1.67769,-1.114627 2.20625,-1.976446 l 7.72187,0.781395 c -1.13757,2.757811 -2.84974,4.826155 -5.14791,6.205061 -2.29818,1.378905 -4.96406,2.068344 -7.99766,2.068344 z m 5.69948,-16.638768 c -0.18386,-1.378906 -0.81584,-2.528009 -1.88449,-3.447279 -1.08015,-0.919271 -2.3786,-1.378906 -3.90691,-1.378906 -1.53976,0 -2.83824,0.448133 -3.90689,1.332957 -1.08015,0.896267 -1.76959,2.056842 -2.06837,3.493228 z m 0,0"
       id="path4254" />
    <path
       style="fill:#000000;fill-opacity:1;stroke:none;stroke-width:2.94166"
       d="m 401.62219,24.859169 v -6.756653 h -2.6199 v -1.424855 h 6.84855 v 1.424855 h -2.66589 v 6.756653 z m 5.51563,0 v -8.181508 h 1.93047 l 1.24103,3.033593 0.73541,2.068344 h 0.0918 l 0.73542,-2.068344 1.241,-3.033593 h 1.8845 v 8.181508 h -1.42488 v -3.631133 l 0.18385,-2.757812 h -0.13796 l -1.93047,5.147915 h -1.24103 l -1.93047,-5.147915 h -0.0918 l 0.18385,2.757812 v 3.631133 z m 0,0"
       id="path4262" />
  </g>
</svg>
